<svg width="251" height="65" viewBox="0 0 251 65" fill="none" xmlns="http://www.w3.org/2000/svg">
<path d="M81.3352 21.9091C81.3352 24.7642 80.794 27.1932 79.7116 29.196C78.6378 31.1989 77.1719 32.7287 75.3139 33.7855C73.4645 34.8338 71.3849 35.358 69.0753 35.358C66.7486 35.358 64.6605 34.8295 62.8111 33.7727C60.9616 32.7159 59.5 31.1861 58.4261 29.1832C57.3523 27.1804 56.8153 24.7557 56.8153 21.9091C56.8153 19.054 57.3523 16.625 58.4261 14.6222C59.5 12.6193 60.9616 11.0937 62.8111 10.0455C64.6605 8.98864 66.7486 8.46023 69.0753 8.46023C71.3849 8.46023 73.4645 8.98864 75.3139 10.0455C77.1719 11.0937 78.6378 12.6193 79.7116 14.6222C80.794 16.625 81.3352 19.054 81.3352 21.9091ZM75.723 21.9091C75.723 20.0597 75.446 18.5 74.892 17.2301C74.3466 15.9602 73.5753 14.9972 72.5781 14.3409C71.581 13.6847 70.4134 13.3565 69.0753 13.3565C67.7372 13.3565 66.5696 13.6847 65.5724 14.3409C64.5753 14.9972 63.7997 15.9602 63.2457 17.2301C62.7003 18.5 62.4276 20.0597 62.4276 21.9091C62.4276 23.7585 62.7003 25.3182 63.2457 26.5881C63.7997 27.858 64.5753 28.821 65.5724 29.4773C66.5696 30.1335 67.7372 30.4616 69.0753 30.4616C70.4134 30.4616 71.581 30.1335 72.5781 29.4773C73.5753 28.821 74.3466 27.858 74.892 26.5881C75.446 25.3182 75.723 23.7585 75.723 21.9091ZM85.3335 35V15.3636H90.6133V18.7898H90.8178C91.1758 17.571 91.7766 16.6506 92.6204 16.0284C93.4641 15.3977 94.4357 15.0824 95.5352 15.0824C95.8079 15.0824 96.1019 15.0994 96.4173 15.1335C96.7326 15.1676 97.0096 15.2145 97.2482 15.2741V20.1065C96.9925 20.0298 96.6389 19.9616 96.1871 19.902C95.7354 19.8423 95.3221 19.8125 94.9471 19.8125C94.146 19.8125 93.43 19.9872 92.7994 20.3366C92.1772 20.6776 91.6829 21.1548 91.3164 21.7685C90.9585 22.3821 90.7795 23.0895 90.7795 23.8906V35H85.3335ZM106.386 35.3196C104.894 35.3196 103.543 34.9361 102.333 34.169C101.131 33.3935 100.177 32.2557 99.4695 30.7557C98.7706 29.2472 98.4212 27.3977 98.4212 25.2074C98.4212 22.9574 98.7834 21.0866 99.5078 19.5952C100.232 18.0952 101.195 16.9744 102.397 16.233C103.607 15.483 104.933 15.108 106.373 15.108C107.472 15.108 108.388 15.2955 109.121 15.6705C109.863 16.0369 110.46 16.4972 110.911 17.0511C111.371 17.5966 111.721 18.1335 111.96 18.6619H112.126V8.81818H117.559V35H112.19V31.8551H111.96C111.704 32.4006 111.342 32.9418 110.873 33.4787C110.413 34.0071 109.812 34.446 109.07 34.7955C108.337 35.1449 107.442 35.3196 106.386 35.3196ZM108.112 30.9858C108.989 30.9858 109.731 30.7472 110.336 30.2699C110.95 29.7841 111.418 29.1065 111.742 28.2372C112.075 27.3679 112.241 26.3494 112.241 25.1818C112.241 24.0142 112.079 23 111.755 22.1392C111.431 21.2784 110.962 20.6136 110.349 20.1449C109.735 19.6761 108.989 19.4418 108.112 19.4418C107.217 19.4418 106.462 19.6847 105.849 20.1705C105.235 20.6562 104.771 21.3295 104.455 22.1903C104.14 23.0511 103.982 24.0483 103.982 25.1818C103.982 26.3239 104.14 27.3338 104.455 28.2116C104.779 29.081 105.244 29.7628 105.849 30.2571C106.462 30.7429 107.217 30.9858 108.112 30.9858ZM134.629 26.6392V15.3636H140.075V35H134.846V31.4332H134.642C134.199 32.5838 133.461 33.5085 132.43 34.2074C131.407 34.9062 130.159 35.2557 128.684 35.2557C127.372 35.2557 126.217 34.9574 125.22 34.3608C124.223 33.7642 123.443 32.9162 122.88 31.8168C122.326 30.7173 122.045 29.4006 122.037 27.8665V15.3636H127.483V26.8949C127.491 28.054 127.802 28.9702 128.416 29.6435C129.029 30.3168 129.852 30.6534 130.883 30.6534C131.539 30.6534 132.153 30.5043 132.724 30.206C133.295 29.8991 133.755 29.4474 134.105 28.8509C134.463 28.2543 134.637 27.517 134.629 26.6392ZM141.708 13.3821V8.81818H163.211V13.3821H155.195V35H149.724V13.3821H141.708ZM164.611 35V15.3636H169.891V18.7898H170.095C170.453 17.571 171.054 16.6506 171.898 16.0284C172.741 15.3977 173.713 15.0824 174.812 15.0824C175.085 15.0824 175.379 15.0994 175.695 15.1335C176.01 15.1676 176.287 15.2145 176.526 15.2741V20.1065C176.27 20.0298 175.916 19.9616 175.464 19.902C175.013 19.8423 174.599 19.8125 174.224 19.8125C173.423 19.8125 172.707 19.9872 172.077 20.3366C171.455 20.6776 170.96 21.1548 170.594 21.7685C170.236 22.3821 170.057 23.0895 170.057 23.8906V35H164.611ZM191.934 26.6392V15.3636H197.38V35H192.151V31.4332H191.946C191.503 32.5838 190.766 33.5085 189.735 34.2074C188.712 34.9062 187.463 35.2557 185.989 35.2557C184.676 35.2557 183.522 34.9574 182.525 34.3608C181.527 33.7642 180.748 32.9162 180.185 31.8168C179.631 30.7173 179.35 29.4006 179.341 27.8665V15.3636H184.787V26.8949C184.796 28.054 185.107 28.9702 185.721 29.6435C186.334 30.3168 187.157 30.6534 188.188 30.6534C188.844 30.6534 189.458 30.5043 190.029 30.206C190.6 29.8991 191.06 29.4474 191.409 28.8509C191.767 28.2543 191.942 27.517 191.934 26.6392ZM206.67 29.3494L206.683 22.8168H207.476L213.766 15.3636H220.017L211.567 25.233H210.276L206.67 29.3494ZM201.736 35V8.81818H207.182V35H201.736ZM214.009 35L208.23 26.4474L211.861 22.5994L220.388 35H214.009Z" fill="#424242"/>
<g clip-path="url(#clip0_59_1189)">
<path d="M2.08325 26C2.08325 9.33337 8.33325 3.08337 24.9999 3.08337C41.6666 3.08337 47.9166 9.33337 47.9166 26C47.9166 42.6667 41.6666 48.9167 24.9999 48.9167C8.33325 48.9167 2.08325 42.6667 2.08325 26Z" fill="#FFBA42"/>
<path d="M25 38.5C31.9036 38.5 37.5 32.9036 37.5 26C37.5 19.0964 31.9036 13.5 25 13.5C18.0964 13.5 12.5 19.0964 12.5 26C12.5 32.9036 18.0964 38.5 25 38.5Z" fill="white"/>
<path d="M28.9791 28.5416L25.9999 25.5625V16.9583C25.9946 16.6837 25.8831 16.4218 25.6889 16.2276C25.4947 16.0334 25.2329 15.922 24.9583 15.9166C24.682 15.9166 24.4171 16.0264 24.2217 16.2217C24.0264 16.4171 23.9166 16.682 23.9166 16.9583V26C23.9131 26.1381 23.937 26.2755 23.9871 26.4043C24.0372 26.533 24.1123 26.6505 24.2083 26.75L27.4999 30.0416C27.5971 30.1387 27.7124 30.2158 27.8393 30.2684C27.9662 30.3209 28.1022 30.348 28.2395 30.348C28.3769 30.348 28.5129 30.3209 28.6398 30.2684C28.7667 30.2158 28.882 30.1387 28.9791 30.0416C29.0762 29.9445 29.1533 29.8292 29.2058 29.7023C29.2584 29.5754 29.2855 29.4394 29.2855 29.302C29.2855 29.1647 29.2584 29.0287 29.2058 28.9018C29.1533 28.7749 29.0762 28.6596 28.9791 28.5625V28.5416Z" fill="#4E57D6"/>
</g>
<path d="M97.5469 42.0469V52H95.8447V42.0469H97.5469ZM100.671 42.0469V43.4141H92.748V42.0469H100.671ZM108.818 42.0469H110.527V48.6982C110.527 49.4548 110.363 50.0882 110.035 50.5986C109.707 51.109 109.26 51.4941 108.695 51.7539C108.135 52.0091 107.508 52.1367 106.815 52.1367C106.1 52.1367 105.462 52.0091 104.901 51.7539C104.341 51.4941 103.899 51.109 103.575 50.5986C103.256 50.0882 103.097 49.4548 103.097 48.6982V42.0469H104.806V48.6982C104.806 49.1768 104.888 49.571 105.052 49.8809C105.216 50.1862 105.448 50.4118 105.749 50.5576C106.05 50.7035 106.405 50.7764 106.815 50.7764C107.226 50.7764 107.579 50.7035 107.875 50.5576C108.176 50.4118 108.408 50.1862 108.572 49.8809C108.736 49.571 108.818 49.1768 108.818 48.6982V42.0469ZM122.146 42.0469V52H120.444V42.0469H122.146ZM125.271 42.0469V43.4141H117.348V42.0469H125.271ZM129.665 42.0469V52H127.949V42.0469H129.665ZM139.562 50.6396V52H134.278V50.6396H139.562ZM134.764 42.0469V52H133.048V42.0469H134.764ZM138.872 46.2031V47.543H134.278V46.2031H138.872ZM139.528 42.0469V43.4141H134.278V42.0469H139.528ZM142.911 42.0469H144.442L147.32 49.7236L150.191 42.0469H151.723L147.922 52H146.705L142.911 42.0469ZM142.214 42.0469H143.67L143.923 48.6914V52H142.214V42.0469ZM150.964 42.0469H152.427V52H150.711V48.6914L150.964 42.0469ZM159.494 48.2881H156.903V46.9277H159.494C159.945 46.9277 160.31 46.8548 160.588 46.709C160.866 46.5632 161.069 46.3626 161.196 46.1074C161.328 45.8477 161.395 45.5514 161.395 45.2188C161.395 44.9043 161.328 44.6104 161.196 44.3369C161.069 44.0589 160.866 43.8356 160.588 43.667C160.31 43.4984 159.945 43.4141 159.494 43.4141H157.43V52H155.714V42.0469H159.494C160.264 42.0469 160.918 42.1836 161.456 42.457C161.998 42.7259 162.411 43.0996 162.693 43.5781C162.976 44.0521 163.117 44.5944 163.117 45.2051C163.117 45.8477 162.976 46.3991 162.693 46.8594C162.411 47.3197 161.998 47.6729 161.456 47.9189C160.918 48.165 160.264 48.2881 159.494 48.2881ZM173.842 46.75V47.2969C173.842 48.0488 173.744 48.7233 173.548 49.3203C173.352 49.9173 173.072 50.4255 172.707 50.8447C172.347 51.264 171.914 51.5853 171.408 51.8086C170.902 52.0273 170.342 52.1367 169.727 52.1367C169.116 52.1367 168.558 52.0273 168.052 51.8086C167.55 51.5853 167.115 51.264 166.746 50.8447C166.377 50.4255 166.09 49.9173 165.885 49.3203C165.684 48.7233 165.584 48.0488 165.584 47.2969V46.75C165.584 45.998 165.684 45.3258 165.885 44.7334C166.085 44.1364 166.368 43.6283 166.732 43.209C167.102 42.7852 167.537 42.4639 168.038 42.2451C168.544 42.0218 169.102 41.9102 169.713 41.9102C170.328 41.9102 170.889 42.0218 171.395 42.2451C171.9 42.4639 172.336 42.7852 172.7 43.209C173.065 43.6283 173.345 44.1364 173.541 44.7334C173.742 45.3258 173.842 45.998 173.842 46.75ZM172.126 47.2969V46.7363C172.126 46.1803 172.071 45.6904 171.962 45.2666C171.857 44.8382 171.7 44.4805 171.49 44.1934C171.285 43.9017 171.032 43.6829 170.731 43.5371C170.431 43.3867 170.091 43.3115 169.713 43.3115C169.335 43.3115 168.997 43.3867 168.701 43.5371C168.405 43.6829 168.152 43.9017 167.942 44.1934C167.737 44.4805 167.58 44.8382 167.471 45.2666C167.361 45.6904 167.307 46.1803 167.307 46.7363V47.2969C167.307 47.8529 167.361 48.3451 167.471 48.7734C167.58 49.2018 167.74 49.5641 167.949 49.8604C168.163 50.152 168.419 50.373 168.715 50.5234C169.011 50.6693 169.348 50.7422 169.727 50.7422C170.109 50.7422 170.449 50.6693 170.745 50.5234C171.041 50.373 171.292 50.152 171.497 49.8604C171.702 49.5641 171.857 49.2018 171.962 48.7734C172.071 48.3451 172.126 47.8529 172.126 47.2969ZM184.955 50.1816L187.573 42.0469H189.467L185.898 52H184.62L184.955 50.1816ZM182.535 42.0469L185.133 50.1816L185.488 52H184.203L180.648 42.0469H182.535ZM195.188 43.373L192.214 52H190.416L194.162 42.0469H195.311L195.188 43.373ZM197.676 52L194.695 43.373L194.565 42.0469H195.721L199.48 52H197.676ZM197.532 48.3086V49.6689H192.118V48.3086H197.532ZM208.079 50.6396V52H203.082V50.6396H208.079ZM203.561 42.0469V52H201.845V42.0469H203.561ZM217.17 50.6396V52H211.886V50.6396H217.17ZM212.371 42.0469V52H210.655V42.0469H212.371ZM216.479 46.2031V47.543H211.886V46.2031H216.479ZM217.136 42.0469V43.4141H211.886V42.0469H217.136Z" fill="black" fill-opacity="0.87"/>
<defs>
<clipPath id="clip0_59_1189">
<rect width="50" height="50" fill="white" transform="translate(0 1)"/>
</clipPath>
</defs>
</svg>
